<svg width="60" height="60" viewBox="0 0 60 60" fill="none" xmlns="http://www.w3.org/2000/svg">
<path fill-rule="evenodd" clip-rule="evenodd" d="M30 5C33.283 4.99998 36.5339 5.64662 39.5671 6.90297C42.6002 8.15933 45.3562 10.0008 47.6777 12.3223C49.9992 14.6437 51.8406 17.3997 53.097 20.4329C54.3534 23.466 55 26.7169 55 30C55 43.8071 43.8071 55 30 55C16.1929 55 5 43.8071 5 30C5 16.1929 16.1929 5 30 5ZM32.5 32.5H27.5C21.3107 32.5 15.9971 36.2485 13.7053 41.5994C17.3315 46.6843 23.2786 50 30 50C36.7214 50 42.6684 46.6843 46.2948 41.5991C44.0029 36.2485 38.6893 32.5 32.5 32.5ZM30 12.5C25.8579 12.5 22.5 15.8579 22.5 20C22.5 24.1421 25.8579 27.5 30 27.5C34.1421 27.5 37.5 24.1421 37.5 20C37.5 15.8579 34.1422 12.5 30 12.5Z" fill="#696D71"/>
</svg>
